<svg width="101" height="101" viewBox="0 0 101 101" fill="none" xmlns="http://www.w3.org/2000/svg">
<path d="M79.8045 40.7515C79.1002 39.0776 77.9301 37.8708 76.42 37.2629L76.3997 37.2553C75.7123 36.9861 74.9805 36.8483 74.2423 36.8492H74.1611C70.7043 36.9013 67.1751 39.8391 65.3807 44.1601C64.0647 47.32 63.9136 50.7185 64.9771 53.2515C65.6801 54.9266 66.8527 56.1335 68.3692 56.7413L68.3857 56.7477C69.0731 57.0167 69.8049 57.1545 70.5431 57.1538C74.0329 57.1538 77.5989 54.216 79.4263 49.8378C80.7258 46.6817 80.8692 43.2858 79.8045 40.7515Z" fill="#1E714F"/>
<path d="M65.9923 59.3886C63.9987 58.1906 62.1142 57.0573 60.8832 55.0218C57.4873 49.3873 55.4365 45.9863 50.0596 45.9863C44.6827 45.9863 42.6269 49.3873 39.2233 55.0218C37.9898 57.0599 36.1015 58.1944 34.1015 59.3974C31.8083 60.7756 29.439 62.1995 28.4162 65.0015C28.0186 66.0116 27.8182 67.0886 27.8261 68.1741C27.8261 72.7363 31.3794 76.4482 35.7449 76.4482C37.9974 76.4482 40.3946 75.6677 42.9314 74.8416C45.3705 74.0472 47.8921 73.2261 50.0723 73.2261C52.2525 73.2261 54.7677 74.0472 57.1979 74.8416C59.7296 75.6627 62.1154 76.4431 64.3743 76.4431C68.7334 76.4431 72.2804 72.7312 72.2804 68.169C72.284 67.0827 72.0794 66.0057 71.6776 64.9964C70.6548 62.1919 68.2842 60.7667 65.9923 59.3886Z" fill="#1E714F"/>
<path d="M36.6078 41.5256C38.118 43.4203 40.0342 44.4634 42.0038 44.4634C42.2726 44.4634 42.5411 44.4435 42.8071 44.4038C46.9149 43.7997 49.4746 38.787 48.6345 32.9825C48.2829 30.5421 47.3439 28.2693 45.9987 26.584C44.4911 24.6931 42.5723 23.6512 40.604 23.6512C40.3351 23.6513 40.0666 23.6712 39.8007 23.7109C35.6928 24.315 33.1332 29.3276 33.9733 35.1322C34.3235 37.5688 35.2626 39.8391 36.6078 41.5256Z" fill="#1E714F"/>
<path d="M57.3134 44.4038C57.5793 44.4435 57.8478 44.4634 58.1167 44.4634C60.0875 44.4634 62.0025 43.4203 63.5126 41.5256C64.8565 39.8391 65.7906 37.5688 66.1459 35.1297C66.986 29.3276 64.4263 24.315 60.3185 23.7084C60.0525 23.6687 59.784 23.6487 59.5152 23.6487C57.5469 23.6512 55.6281 24.6931 54.1205 26.584C52.7753 28.2693 51.8362 30.5421 51.486 32.985C50.6459 38.787 53.2055 43.7997 57.3134 44.4038Z" fill="#1E714F"/>
<path d="M31.7334 56.7477L31.7512 56.7413C33.2652 56.1335 34.4365 54.9279 35.1383 53.254C36.2017 50.716 36.052 47.3213 34.7385 44.1614C32.92 39.7883 29.3553 36.8492 25.8692 36.8492C25.131 36.8482 24.3992 36.9859 23.7119 37.2553L23.6941 37.2617C22.184 37.8644 21.0126 39.0751 20.3109 40.749C19.2474 43.287 19.3972 46.6817 20.7106 49.8416C22.5291 54.2147 26.0939 57.1538 29.5799 57.1538C30.3168 57.1544 31.0473 57.0166 31.7334 56.7477Z" fill="#1E714F"/>
<path fill-rule="evenodd" clip-rule="evenodd" d="M0.0645752 3.85557C0.0645752 1.75296 1.76907 0.0484619 3.87168 0.0484619H96.2575C98.3601 0.0484619 100.065 1.75296 100.065 3.85557V96.2414C100.065 98.344 98.3601 100.048 96.2575 100.048H3.87168C1.76907 100.048 0.0645752 98.344 0.0645752 96.2414V3.85557ZM7.67879 7.66267V92.4342H92.4504V7.66267H7.67879Z" fill="#1E714F"/>
</svg>
