<svg width="157" height="268" viewBox="0 0 157 268" fill="none" xmlns="http://www.w3.org/2000/svg">
<path d="M110.684 41.5259C109.979 39.8521 108.809 38.6452 107.299 38.0373L107.279 38.0297C106.591 37.7605 105.86 37.6227 105.121 37.6236H105.04C101.583 37.6757 98.0541 40.6135 96.2597 44.9345C94.9437 48.0944 94.7927 51.4929 95.8562 54.0259C96.5592 55.701 97.7318 56.9079 99.2483 57.5158L99.2648 57.5221C99.9522 57.7911 100.684 57.9289 101.422 57.9282C104.912 57.9282 108.478 54.9904 110.305 50.6122C111.605 47.4561 111.748 44.0602 110.684 41.5259Z" fill="white"/>
<path d="M96.8714 60.163C94.8777 58.965 92.9932 57.8318 91.7623 55.7962C88.3663 50.1617 86.3156 46.7607 80.9386 46.7607C75.5617 46.7607 73.5059 50.1617 70.1024 55.7962C68.8689 57.8343 66.9805 58.9688 64.9805 60.1719C62.6874 61.55 60.3181 62.9739 59.2952 65.7759C58.8976 66.786 58.6973 67.863 58.7051 68.9485C58.7051 73.5107 62.2584 77.2226 66.6239 77.2226C68.8765 77.2226 71.2737 76.4422 73.8105 75.616C76.2496 74.8216 78.7711 74.0005 80.9513 74.0005C83.1315 74.0005 85.6468 74.8216 88.077 75.616C90.6087 76.4371 92.9945 77.2175 95.2534 77.2175C99.6125 77.2175 103.159 73.5056 103.159 68.9434C103.163 67.8571 102.958 66.7801 102.557 65.7708C101.534 62.9663 99.1633 61.5411 96.8714 60.163Z" fill="white"/>
<path d="M67.4869 42.3C68.997 44.1947 70.9133 45.2378 72.8828 45.2378C73.1517 45.2378 73.4202 45.2179 73.6861 45.1782C77.794 44.5741 80.3536 39.5614 79.5135 33.7569C79.162 31.3165 78.2229 29.0437 76.8777 27.3584C75.3701 25.4675 73.4513 24.4257 71.4831 24.4257C71.2142 24.4257 70.9457 24.4456 70.6798 24.4853C66.5719 25.0894 64.0123 30.1021 64.8524 35.9066C65.2026 38.3432 66.1417 40.6135 67.4869 42.3Z" fill="white"/>
<path d="M88.1925 45.1782C88.4584 45.2179 88.7269 45.2378 88.9958 45.2378C90.9666 45.2378 92.8815 44.1947 94.3917 42.3C95.7356 40.6135 96.6696 38.3432 97.0249 35.9041C97.865 30.1021 95.3054 25.0894 91.1975 24.4828C90.9316 24.4431 90.6631 24.4231 90.3942 24.4231C88.426 24.4257 86.5072 25.4675 84.9996 27.3584C83.6544 29.0437 82.7153 31.3165 82.365 33.7594C81.5249 39.5615 84.0846 44.5741 88.1925 45.1782Z" fill="white"/>
<path d="M62.6125 57.5221L62.6303 57.5158C64.1442 56.9079 65.3155 55.7023 66.0173 54.0285C67.0808 51.4904 66.931 48.0957 65.6176 44.9358C63.7991 40.5627 60.2343 37.6236 56.7483 37.6236C56.0101 37.6226 55.2782 37.7603 54.5909 38.0297L54.5732 38.0361C53.063 38.6389 51.8917 39.8495 51.1899 41.5234C50.1265 44.0614 50.2762 47.4561 51.5897 50.616C53.4082 54.9891 56.9729 57.9282 60.459 57.9282C61.1959 57.9288 61.9264 57.791 62.6125 57.5221Z" fill="white"/>
<path fill-rule="evenodd" clip-rule="evenodd" d="M30.9436 4.62998C30.9436 2.52738 32.6481 0.822876 34.7507 0.822876H127.137C129.239 0.822876 130.944 2.52738 130.944 4.62998V97.0158C130.944 99.1184 129.239 100.823 127.137 100.823H34.7507C32.6481 100.823 30.9436 99.1184 30.9436 97.0158V4.62998ZM38.5578 8.43709V93.2087H123.329V8.43709H38.5578Z" fill="white"/>
<path d="M15.5198 160.057H23.7303L39.0371 201.697H30.7093L26.8386 191.316H12.2942L8.4822 201.697H0.154388L15.5198 160.057ZM25.3724 185.627L19.625 168.444L13.6431 185.627H25.3724Z" fill="white"/>
<path d="M43.6042 201.697V160.057H62.0192C63.935 160.057 65.6944 160.448 67.2974 161.23C68.9395 162.012 70.347 163.068 71.5199 164.397C72.732 165.727 73.6507 167.212 74.2763 168.854C74.941 170.497 75.2733 172.178 75.2733 173.898C75.2733 175.657 74.9605 177.358 74.335 179C73.7485 180.603 72.8883 182.011 71.7545 183.223C70.6207 184.435 69.2914 185.373 67.7665 186.038L77.2673 201.697H68.353L59.7906 187.739H51.6974V201.697H43.6042ZM51.6974 180.642H61.8432C62.8598 180.642 63.759 180.349 64.541 179.763C65.3229 179.137 65.9485 178.316 66.4177 177.3C66.8868 176.283 67.1214 175.149 67.1214 173.898C67.1214 172.569 66.8478 171.415 66.3004 170.438C65.753 169.421 65.0493 168.62 64.1891 168.033C63.3681 167.447 62.4688 167.154 61.4914 167.154H51.6974V180.642Z" fill="white"/>
<path d="M79.8555 180.584C79.8555 178.042 80.3052 175.56 81.2044 173.136C82.1427 170.672 83.4916 168.444 85.251 166.45C87.0104 164.417 89.1608 162.814 91.7021 161.641C94.2435 160.429 97.1367 159.823 100.382 159.823C104.213 159.823 107.517 160.663 110.293 162.345C113.108 164.026 115.2 166.215 116.568 168.913L110.352 173.194C109.648 171.63 108.729 170.399 107.595 169.5C106.462 168.561 105.249 167.916 103.959 167.564C102.669 167.173 101.398 166.978 100.147 166.978C98.1142 166.978 96.3352 167.388 94.8104 168.209C93.3247 169.03 92.0736 170.106 91.057 171.435C90.0405 172.764 89.2781 174.25 88.7698 175.892C88.3006 177.534 88.066 179.176 88.066 180.818C88.066 182.656 88.3593 184.435 88.9457 186.155C89.5322 187.836 90.3533 189.342 91.4089 190.671C92.5036 191.961 93.7939 192.997 95.2796 193.779C96.8044 194.522 98.466 194.894 100.265 194.894C101.555 194.894 102.865 194.678 104.194 194.248C105.523 193.818 106.755 193.134 107.889 192.196C109.022 191.257 109.902 190.045 110.528 188.56L117.155 192.372C116.334 194.444 114.985 196.203 113.108 197.65C111.271 199.097 109.198 200.191 106.892 200.934C104.585 201.677 102.298 202.048 100.03 202.048C97.0585 202.048 94.3412 201.442 91.8781 200.23C89.4149 198.979 87.2841 197.337 85.4856 195.304C83.7262 193.232 82.3382 190.925 81.3217 188.384C80.3443 185.803 79.8555 183.203 79.8555 180.584Z" fill="white"/>
<path d="M133.328 160.057H141.539L156.846 201.697H148.518L144.647 191.316H130.103L126.291 201.697H117.963L133.328 160.057ZM143.181 185.627L137.434 168.444L131.452 185.627H143.181Z" fill="white"/>
<path d="M0.157978 267.177V221.597H16.7208C21.6853 221.597 25.8367 222.624 29.175 224.679C32.5132 226.69 35.0169 229.429 36.686 232.896C38.3551 236.32 39.1897 240.129 39.1897 244.323C39.1897 248.945 38.2695 252.968 36.4292 256.392C34.5889 259.816 31.9782 262.469 28.5972 264.352C25.259 266.236 21.3002 267.177 16.7208 267.177H0.157978ZM30.2663 244.323C30.2663 241.37 29.7314 238.781 28.6614 236.555C27.5915 234.287 26.0507 232.532 24.0392 231.291C22.0277 230.007 19.5882 229.365 16.7208 229.365H9.01715V259.409H16.7208C19.631 259.409 22.0919 258.767 24.1034 257.483C26.1149 256.157 27.6343 254.359 28.6614 252.091C29.7314 249.78 30.2663 247.19 30.2663 244.323Z" fill="white"/>
<path d="M56.746 221.597H65.7336L82.489 267.177H73.373L69.136 255.814H53.2152L49.0424 267.177H39.9265L56.746 221.597ZM67.5311 249.587L61.2398 230.777L54.6917 249.587H67.5311Z" fill="white"/>
<path d="M117.314 229.365H102.741V267.177H93.9461V229.365H79.3734V221.597H117.314V229.365Z" fill="white"/>
<path d="M131.099 221.597H140.087L156.842 267.177H147.726L143.489 255.814H127.568L123.395 267.177H114.279L131.099 221.597ZM141.884 249.587L135.593 230.777L129.045 249.587H141.884Z" fill="white"/>
</svg>
